<?xml version="1.0" standalone="no"?>
<!DOCTYPE svg PUBLIC "-//W3C//DTD SVG 20010904//EN"
 "http://www.w3.org/TR/2001/REC-SVG-20010904/DTD/svg10.dtd">
<svg version="1.0" xmlns="http://www.w3.org/2000/svg"
 width="700.000000pt" height="700.000000pt" viewBox="0 0 700.000000 700.000000"
 preserveAspectRatio="xMidYMid meet">
<metadata>
Created by potrace 1.11, written by Peter Selinger 2001-2013
</metadata>
<g transform="translate(0.000000,700.000000) scale(0.100000,-0.100000)"
fill="#000000" stroke="none">
<path d="M1778 6375 c-278 -38 -413 -118 -498 -297 -82 -171 -74 66 -75 -2498
0 -1257 3 -2316 7 -2355 29 -297 129 -440 368 -524 129 -45 247 -60 445 -56
183 4 198 6 322 36 92 23 180 62 237 108 110 88 197 270 212 443 2 35 5 257 5
494 l1 431 471 2 c260 1 490 3 511 4 l40 2 98 -225 c55 -124 109 -250 122
-280 38 -87 175 -399 203 -460 14 -30 33 -73 43 -95 69 -158 126 -259 179
-313 185 -192 409 -225 746 -111 119 41 282 120 370 179 201 136 296 299 282
484 -6 71 -37 204 -61 261 -8 17 -26 62 -41 100 -16 39 -40 97 -56 130 -21 47
-195 433 -319 710 -39 86 -130 304 -130 310 0 4 20 27 44 53 131 141 218 267
305 447 84 172 146 365 166 515 3 19 7 46 10 60 20 110 28 472 12 595 -62 485
-260 900 -580 1216 -315 312 -852 575 -1272 625 -33 3 -69 9 -80 12 -11 3
-463 7 -1005 8 -766 1 -1006 -1 -1082 -11z m1973 -1570 c201 -52 366 -202 409
-373 22 -85 20 -229 -4 -340 -28 -131 -152 -252 -338 -331 l-63 -26 -477 -3
-476 -3 0 545 1 545 76 3 c42 2 241 2 442 1 303 -2 378 -5 430 -18z"/>
</g>
</svg>
