<?xml version="1.0" encoding="utf-8"?>
<!-- Generator: Adobe Illustrator 16.0.0, SVG Export Plug-In . SVG Version: 6.00 Build 0)  -->
<!DOCTYPE svg PUBLIC "-//W3C//DTD SVG 1.1//EN" "http://www.w3.org/Graphics/SVG/1.1/DTD/svg11.dtd">
<svg version="1.1" id="Layer_1" xmlns="http://www.w3.org/2000/svg" xmlns:xlink="http://www.w3.org/1999/xlink" x="0px" y="0px"
	 width="240px" height="240px" viewBox="300.5 240.5 240 240" enable-background="new 300.5 240.5 240 240" xml:space="preserve">
<g>
	<g>
		<path fill="#C6C4E7" stroke="#000000" stroke-miterlimit="10" d="M423.977,390.09l-15.605-13.183l15.839-15.161
			c1.059-1.01,1.611-2.445,1.511-3.907c-0.11-1.462-0.857-2.798-2.044-3.647l-25.359-18.185l17.647-24.943
			c0.772-1.103,1.069-2.465,0.813-3.783c-0.265-1.319-1.045-2.475-2.179-3.21c-8.112-5.188-17.508-7.957-27.183-7.984
			c-0.06,0-0.117-0.001-0.169-0.001c-13.497,0-26.207,5.263-35.805,14.823c-9.634,9.614-14.943,22.356-14.943,35.918
			c0,12.951,4.874,25.278,13.732,34.726l48.46,51.623c3.425,3.661,8.257,5.74,13.259,5.74l0,0c2.309,0,4.305-1.593,4.801-3.853
			l8.858-40.158C426.007,393.117,425.375,391.266,423.977,390.09z M408.193,428.182c-0.867-0.441-1.649-1.016-2.318-1.742
			l-48.461-51.624c-7.139-7.618-11.07-17.546-11.07-27.989c0-10.928,4.277-21.195,12.052-28.938
			c7.736-7.714,17.979-11.959,28.854-11.959c0.041,0,0.09,0,0.131,0c6.058,0.018,11.976,1.361,17.379,3.93l-17.307,24.461
			c-1.563,2.201-1.052,5.264,1.15,6.83l24.519,17.592l-15.509,14.847c-1.006,0.968-1.56,2.313-1.521,3.716
			c0.049,1.387,0.686,2.698,1.752,3.607l17.514,14.779L408.193,428.182z"/>
	</g>
</g>
<g>
	<g>
		<path fill="#C6C4E7" stroke="#000000" stroke-miterlimit="10" d="M489.555,310.907c-9.6-9.562-22.306-14.821-35.804-14.821
			c-0.052,0-0.112,0-0.173,0l0,0c-9.592,0.028-18.909,2.738-26.978,7.867c-0.62,0.354-1.171,0.85-1.595,1.464l-17.661,25.362
			c-1.533,2.207-1.028,5.217,1.132,6.801l27.139,19.768l-15.362,15.428c-0.955,0.959-1.471,2.264-1.429,3.608
			c0.033,1.344,0.619,2.622,1.619,3.532l13.454,12.098l-9.636,40.846c-0.345,1.466-0.003,3.018,0.928,4.194
			c0.938,1.176,2.357,1.86,3.858,1.86h0.001c5.002,0,9.834-2.078,13.26-5.739l48.451-51.624c8.857-9.446,13.74-21.773,13.74-34.725
			C504.5,333.264,499.198,320.521,489.555,310.907z M483.59,374.815l-47.442,50.551l8-33.921c0.413-1.756-0.161-3.588-1.495-4.784
			l-11.769-10.606l15.763-15.821c1.011-1.032,1.526-2.432,1.416-3.868c-0.109-1.438-0.843-2.749-2.003-3.592l-27.885-20.326
			l14.323-20.575c6.354-3.876,13.626-5.921,21.119-5.943l0,0c0.042,0,0.092,0,0.134,0c10.874,0,21.117,4.245,28.855,11.959
			c7.771,7.741,12.05,18.011,12.05,28.938C494.656,357.27,490.725,367.197,483.59,374.815z"/>
	</g>
</g>
<g>
	<path fill="#C6C4E7" d="M420.5,252c28.982,0,56.229,11.286,76.722,31.778C517.714,304.271,529,331.518,529,360.5
		s-11.286,56.229-31.778,76.722C476.729,457.714,449.482,469,420.5,469c-28.982,0-56.229-11.286-76.722-31.778
		S312,389.482,312,360.5s11.286-56.229,31.778-76.722C364.271,263.286,391.518,252,420.5,252 M420.5,243
		C355.605,243,303,295.605,303,360.5c0,64.896,52.605,117.5,117.5,117.5c64.895,0,117.5-52.604,117.5-117.5
		C538,295.605,485.395,243,420.5,243L420.5,243z"/>
	<circle fill="none" stroke="#000000" stroke-miterlimit="10" cx="420.5" cy="360.5" r="117.5"/>
</g>
</svg>
