<?xml version="1.0" encoding="utf-8"?>
<!-- Generator: Adobe Illustrator 16.0.0, SVG Export Plug-In . SVG Version: 6.00 Build 0)  -->
<!DOCTYPE svg PUBLIC "-//W3C//DTD SVG 1.1//EN" "http://www.w3.org/Graphics/SVG/1.1/DTD/svg11.dtd">
<svg version="1.1" id="Layer_1" xmlns="http://www.w3.org/2000/svg" xmlns:xlink="http://www.w3.org/1999/xlink" x="0px" y="0px"
	 width="240px" height="240px" viewBox="0.5 240.5 240 240" enable-background="new 0.5 240.5 240 240" xml:space="preserve">
<g>
	<g>
		<path fill="#C6C4E7" stroke="#000000" stroke-miterlimit="10" d="M183.306,310.767c-9.979-9.935-23.152-15.362-37.203-15.325
			c-9.017,0.041-17.808,2.364-25.603,6.767c-7.799-4.403-16.607-6.726-25.642-6.767c-0.056,0-0.104,0-0.154,0
			c-13.964,0-27.097,5.447-37.012,15.325c-9.976,9.936-15.453,23.12-15.453,37.143c0,13.375,5.041,26.101,14.189,35.883
			l50.634,53.958c3.464,3.669,8.355,5.81,13.437,5.81c5.086,0,9.989-2.141,13.438-5.81l50.634-53.958
			c9.147-9.782,14.189-22.508,14.189-35.883C198.761,333.885,193.28,320.702,183.306,310.767z M177.895,377.526l-50.627,53.944
			c-1.773,1.846-4.243,2.917-6.768,2.917c-2.561,0-5.006-1.071-6.764-2.917l-50.603-53.944c-7.559-8.088-11.724-18.59-11.724-29.617
			c0-11.563,4.537-22.452,12.746-30.646c8.197-8.168,19.027-12.65,30.55-12.65c0.035,0,0.076,0,0.14,0
			c8.19,0.04,16.139,2.344,23.018,6.724c1.489,1.035,3.478,1.12,5.123,0.106c6.912-4.436,14.907-6.789,23.16-6.83
			c0.073,0,0.11-0.001,0.146-0.001c11.521,0,22.353,4.481,30.535,12.651c8.254,8.191,12.762,19.082,12.762,30.646
			C189.59,358.937,185.414,369.438,177.895,377.526z"/>
	</g>
</g>
<g>
	<path fill="#C6C4E7" d="M120.5,252c28.982,0,56.229,11.286,76.722,31.778C217.714,304.271,229,331.518,229,360.5
		s-11.286,56.229-31.778,76.722S149.482,469,120.5,469c-28.982,0-56.229-11.286-76.722-31.778S12,389.482,12,360.5
		s11.286-56.229,31.778-76.722C64.271,263.286,91.518,252,120.5,252 M120.5,243C55.605,243,3,295.605,3,360.5
		C3,425.396,55.605,478,120.5,478c64.895,0,117.5-52.604,117.5-117.5C238,295.605,185.395,243,120.5,243L120.5,243z"/>
	<circle fill="none" stroke="#000000" stroke-miterlimit="10" cx="120.5" cy="360.5" r="117.5"/>
</g>
</svg>
