<?xml version="1.0" encoding="utf-8"?>
<!-- Generator: Adobe Illustrator 16.0.0, SVG Export Plug-In . SVG Version: 6.00 Build 0)  -->
<!DOCTYPE svg PUBLIC "-//W3C//DTD SVG 1.1//EN" "http://www.w3.org/Graphics/SVG/1.1/DTD/svg11.dtd">
<svg version="1.1" id="Layer_1" xmlns="http://www.w3.org/2000/svg" xmlns:xlink="http://www.w3.org/1999/xlink" x="0px" y="0px"
	 width="120px" height="120px" viewBox="0 0 120 120" enable-background="new 0 0 120 120" xml:space="preserve">
<g>
	<g>
		<g>
			<path fill="#39348D" d="M96.711,90.822c1.293,3.087,1.944,5.303,1.944,6.654c0,3.261-2.729,6.061-8.137,8.276
				c-2.813,1.186-5.069,1.713-6.825,1.713c-1.742,0-3.115-0.344-4.215-1.203c-1.104-0.704-1.928-1.58-2.417-2.476
				c-0.907-1.532-4.328-9.427-10.325-23.188l-4.074,0.214H46.027v14.481c0,1.982-0.054,3.419-0.186,4.421
				c-0.18,1.002-0.548,2.13-1.3,3.384c-1.215,2.44-4.633,3.586-10.256,3.586c-6.158,0-9.808-1.655-10.874-4.84
				c-0.513-1.423-0.756-3.639-0.756-6.66V23.852c0-1.989,0.054-3.493,0.168-4.417c0.198-1.004,0.548-2.134,1.319-3.463
				c1.212-2.29,4.628-3.438,10.255-3.438h28.499c7.754,0,15.311,2.743,22.606,8.219c3.491,2.665,6.388,6.285,8.668,10.806
				c2.275,4.514,3.438,9.622,3.438,15.168c0,9.7-3.255,17.64-9.864,23.837C89.649,75.223,92.683,81.92,96.711,90.822z
				 M46.027,58.053h16.87c2.577,0,5.086-0.965,7.672-2.809c2.554-1.931,3.834-4.742,3.834-8.518c0-3.774-1.28-6.604-3.834-8.563
				c-2.586-1.888-5.17-2.872-7.907-2.872H46.027V58.053z"/>
		</g>
		<g>
			<path fill="#C6C4E7" d="M93.158,31.62c2.277,4.545,3.388,9.585,3.388,15.203c0,5.58-1.111,10.68-3.388,15.191
				c-2.222,4.482-5.138,8.109-8.745,10.816c-7.185,5.439-14.643,8.184-22.387,8.184H45.733v14.606c0,1.963-0.059,3.532-0.239,4.518
				c-0.11,0.994-0.533,2.121-1.201,3.36c-1.248,2.254-4.581,3.521-10.19,3.521c-6.06,0-9.612-1.627-10.651-4.761
				c-0.572-1.554-0.796-3.749-0.796-6.738V23.865c0-1.979,0.049-3.464,0.157-4.447c0.179-0.982,0.544-2.167,1.273-3.416
				c1.196-2.334,4.584-3.468,10.175-3.468h27.874c7.678,0,15.094,2.714,22.279,8.19C88.02,23.429,90.936,27.013,93.158,31.62z
				 M69.847,55.323c2.515-1.835,3.769-4.695,3.769-8.5c0-3.796-1.253-6.66-3.769-8.599c-2.509-1.94-5.162-2.91-7.82-2.91H45.733
				v22.87h16.401C64.731,58.185,67.337,57.214,69.847,55.323z"/>
		</g>
	</g>
	<g>
		<g>
			<path fill="none" stroke="#F65683" stroke-width="4" d="M96.711,90.822c1.293,3.087,1.944,5.303,1.944,6.654
				c0,3.261-2.729,6.061-8.137,8.276c-2.813,1.186-5.069,1.713-6.825,1.713c-1.742,0-3.115-0.344-4.215-1.203
				c-1.104-0.704-1.928-1.58-2.417-2.476c-0.907-1.532-4.328-9.427-10.325-23.188l-4.074,0.214H46.027v14.481
				c0,1.982-0.054,3.419-0.186,4.421c-0.18,1.002-0.548,2.13-1.3,3.384c-1.215,2.44-4.633,3.586-10.256,3.586
				c-6.158,0-9.808-1.655-10.874-4.84c-0.513-1.423-0.756-3.639-0.756-6.66V23.852c0-1.989,0.054-3.493,0.168-4.417
				c0.198-1.004,0.548-2.134,1.319-3.463c1.212-2.29,4.628-3.438,10.255-3.438h28.499c7.754,0,15.311,2.743,22.606,8.219
				c3.491,2.665,6.388,6.285,8.668,10.806c2.275,4.514,3.438,9.622,3.438,15.168c0,9.7-3.255,17.64-9.864,23.837
				C89.649,75.223,92.683,81.92,96.711,90.822z M46.027,58.053h16.87c2.577,0,5.086-0.965,7.672-2.809
				c2.554-1.931,3.834-4.742,3.834-8.518c0-3.774-1.28-6.604-3.834-8.563c-2.586-1.888-5.17-2.872-7.907-2.872H46.027V58.053z"/>
		</g>
		<g>
			<path fill="none" stroke="#F65683" stroke-width="4" d="M93.158,31.62c2.277,4.545,3.388,9.585,3.388,15.203
				c0,5.58-1.111,10.68-3.388,15.191c-2.222,4.482-5.138,8.109-8.745,10.816c-7.185,5.439-14.643,8.184-22.387,8.184H45.733v14.606
				c0,1.963-0.059,3.532-0.239,4.518c-0.11,0.994-0.533,2.121-1.201,3.36c-1.248,2.254-4.581,3.521-10.19,3.521
				c-6.06,0-9.612-1.627-10.651-4.761c-0.572-1.554-0.796-3.749-0.796-6.738V23.865c0-1.979,0.049-3.464,0.157-4.447
				c0.179-0.982,0.544-2.167,1.273-3.416c1.196-2.334,4.584-3.468,10.175-3.468h27.874c7.678,0,15.094,2.714,22.279,8.19
				C88.02,23.429,90.936,27.013,93.158,31.62z M69.847,55.323c2.515-1.835,3.769-4.695,3.769-8.5c0-3.796-1.253-6.66-3.769-8.599
				c-2.509-1.94-5.162-2.91-7.82-2.91H45.733v22.87h16.401C64.731,58.185,67.337,57.214,69.847,55.323z"/>
		</g>
	</g>
</g>
</svg>
