<?xml version="1.0" encoding="utf-8"?>
<!-- Generator: Adobe Illustrator 16.0.0, SVG Export Plug-In . SVG Version: 6.00 Build 0)  -->
<!DOCTYPE svg PUBLIC "-//W3C//DTD SVG 1.1//EN" "http://www.w3.org/Graphics/SVG/1.1/DTD/svg11.dtd">
<svg version="1.1" id="Layer_1" xmlns="http://www.w3.org/2000/svg" xmlns:xlink="http://www.w3.org/1999/xlink" x="0px" y="0px"
	 width="1100px" height="120px" viewBox="0 0 1100 120" enable-background="new 0 0 1100 120" xml:space="preserve">
<g>
	<g>
		<path fill="#C6C4E7" stroke="#C6C4E7" stroke-width="2" stroke-miterlimit="10" d="M81.986,90.563
			c1.22,2.997,1.835,5.147,1.835,6.458c0,3.164-2.578,5.882-7.688,8.031c-2.658,1.146-4.791,1.659-6.45,1.659
			c-1.646,0-2.944-0.332-3.985-1.168c-1.043-0.681-1.822-1.531-2.283-2.4c-0.856-1.488-4.091-9.146-9.757-22.505l-3.85,0.212H34.087
			v14.053c0,1.923-0.052,3.319-0.175,4.288c-0.17,0.975-0.519,2.068-1.229,3.285c-1.148,2.369-4.379,3.479-9.693,3.479
			c-5.818,0-9.268-1.604-10.276-4.695C12.229,99.88,12,97.73,12,94.797V25.588c0-1.932,0.053-3.39,0.157-4.287
			c0.19-0.973,0.521-2.068,1.249-3.359c1.146-2.222,4.375-3.334,9.691-3.334h26.932c7.328,0,14.47,2.658,21.365,7.973
			c3.299,2.585,6.037,6.099,8.19,10.486c2.152,4.379,3.25,9.333,3.25,14.715c0,9.411-3.077,17.115-9.322,23.125
			C75.311,75.429,78.178,81.926,81.986,90.563z M34.087,58.771h15.941c2.437,0,4.808-0.935,7.251-2.726
			c2.414-1.874,3.626-4.602,3.626-8.264c0-3.664-1.212-6.409-3.626-8.307c-2.443-1.835-4.885-2.789-7.472-2.789H34.087V58.771z"/>
		<path fill="#C6C4E7" stroke="#C6C4E7" stroke-width="2" stroke-miterlimit="10" d="M112.757,83.973h38.426
			c1.933,0,3.388,0.055,4.292,0.16c0.971,0.123,2.063,0.456,3.355,1.182c2.223,1.15,3.347,4.383,3.347,9.692
			c0,5.883-1.547,9.27-4.638,10.254c-1.365,0.444-3.564,0.798-6.458,0.798h-49.42c-5.818,0-9.188-1.638-10.194-4.799
			c-0.502-1.31-0.787-3.426-0.787-6.356V25.588c0-4.236,0.822-7.159,2.403-8.705c1.579-1.545,4.598-2.275,8.978-2.275h49.124
			c1.933,0,3.388,0.052,4.292,0.156c0.971,0.18,2.063,0.521,3.355,1.241c2.223,1.147,3.347,4.387,3.347,9.699
			c0,5.819-1.547,9.261-4.638,10.193c-1.365,0.505-3.564,0.791-6.458,0.791h-38.323v12.604h24.709c1.939,0,3.351,0.054,4.289,0.168
			c0.971,0.104,2.066,0.512,3.356,1.163c2.232,1.222,3.346,4.454,3.346,9.749c0,5.849-1.581,9.217-4.742,10.223
			c-1.441,0.567-3.592,0.774-6.471,0.774h-24.488V83.973z"/>
		<path fill="#39348D" stroke="#C6C4E7" stroke-width="2" stroke-miterlimit="10" d="M244.97,29.771
			c2.436,4.911,3.626,10.36,3.626,16.437c0,6.026-1.19,11.534-3.626,16.411c-2.378,4.847-5.5,8.764-9.36,11.692
			c-7.688,5.877-15.67,8.843-23.959,8.843h-17.438v15.788c0,2.12-0.064,3.815-0.254,4.883c-0.116,1.073-0.572,2.29-1.288,3.631
			c-1.332,2.444-4.901,3.803-10.906,3.803c-6.487,0-10.286-1.754-11.402-5.144c-0.611-1.677-0.851-4.049-0.851-7.278V21.388
			c0-2.13,0.052-3.736,0.167-4.807c0.191-1.059,0.583-2.341,1.364-3.693c1.28-2.519,4.905-3.745,10.89-3.745h29.833
			c8.218,0,16.156,2.931,23.843,8.853C239.47,20.916,242.591,24.79,244.97,29.771z M220.021,55.389
			c2.695-1.984,4.032-5.072,4.032-9.181c0-4.111-1.337-7.202-4.032-9.298c-2.687-2.095-5.524-3.148-8.371-3.148h-17.438v24.713
			h17.554C214.546,58.475,217.334,57.439,220.021,55.389z"/>
		<path fill="#39348D" stroke="#C6C4E7" stroke-width="2" stroke-miterlimit="10" d="M324.494,12.888
			c0.95-1.496,2.267-2.519,4.057-3.073c1.753-0.554,3.95-0.874,6.592-0.874c2.655,0,4.766,0.273,6.352,0.756
			c1.583,0.388,2.836,0.94,3.622,1.648c0.884,0.647,1.47,1.625,1.861,2.895c0.554,1.579,0.799,4.028,0.799,7.275v42.159
			c0,12.222-3.802,23.461-11.389,33.416c-3.717,4.81-8.564,8.543-14.431,11.523c-5.852,2.955-12.309,4.37-19.467,4.37
			c-7.076,0-13.511-1.433-19.322-4.424c-5.815-3.013-10.531-6.798-14.168-11.702c-7.591-9.794-11.343-21.04-11.343-33.532V21.388
			c0-2.213,0.054-3.929,0.245-5c0.118-1.059,0.582-2.265,1.289-3.691c0.802-1.351,2.024-2.328,3.767-2.882
			c1.812-0.554,4.143-0.874,7.147-0.874c3.002,0,5.332,0.32,7.075,0.874c1.814,0.554,3.003,1.531,3.639,2.882
			c1.105,2.132,1.661,5.101,1.661,8.819v41.811c0,5.762,1.426,11.152,4.189,16.278c1.415,2.543,3.523,4.621,6.278,6.294
			c2.852,1.503,6.133,2.34,9.927,2.34c6.795,0,11.892-2.593,15.222-7.531c3.309-5.043,5.022-10.929,5.022-17.498V20.527
			C323.116,16.89,323.544,14.322,324.494,12.888z"/>
		<path fill="#39348D" stroke="#C6C4E7" stroke-width="2" stroke-miterlimit="10" d="M425.021,13.39
			c0.919-1.699,2.206-2.787,3.99-3.341c1.772-0.554,3.968-0.788,6.605-0.788c2.662,0,4.78,0.188,6.404,0.671
			c1.625,0.474,2.886,1.025,3.64,1.659c0.824,0.704,1.396,1.625,1.723,2.969c0.594,1.498,0.861,3.827,0.861,7.073V99.07
			c0,2.214-0.053,3.9-0.179,4.938c-0.182,1.037-0.59,2.211-1.353,3.551c-1.271,2.593-4.92,3.826-10.916,3.826
			c-3.563,0-6.084-0.232-7.5-0.872c-1.375-0.613-2.577-1.372-3.444-2.721C403.9,79.99,390.142,61.742,383.499,53.178V99.07
			c0,2.214-0.051,3.9-0.167,4.938c-0.139,1.037-0.572,2.211-1.364,3.551c-1.271,2.593-4.909,3.826-10.84,3.826
			c-5.771,0-9.323-1.233-10.66-3.826c-0.716-1.34-1.168-2.577-1.287-3.679c-0.117-1.105-0.186-2.818-0.186-4.938V21.08
			c0-3.479,0.372-6.066,1.294-7.689c0.895-1.699,2.193-2.787,4.007-3.341c1.742-0.554,3.993-0.788,6.832-0.788
			c2.778,0,4.97,0.217,6.586,0.723c1.623,0.521,2.746,1.092,3.455,1.797c0.328,0.247,1.398,1.436,3.216,3.566
			c19.602,26.716,32.717,44.379,39.288,52.929V21.08C423.672,17.6,424.123,15.013,425.021,13.39z"/>
		<path fill="#C6C4E7" stroke="#C6C4E7" stroke-width="2" stroke-miterlimit="10" d="M458.387,93.246
			c-2.154-2.72-3.231-5.087-3.231-7.207c0-2.121,1.817-4.958,5.349-8.417c2.083-2.02,4.28-3.019,6.638-3.019
			c2.305,0,5.533,2.079,9.702,6.247c1.213,1.375,2.871,2.68,5.024,4.079c2.153,1.25,4.169,1.959,5.957,1.959
			c7.762,0,11.6-3.16,11.6-9.476c0-1.945-1.061-3.606-3.178-4.862c-2.119-1.27-4.759-2.225-7.918-2.86
			c-3.161-0.511-6.529-1.465-10.193-2.715c-3.666-1.343-7.109-2.854-10.268-4.592c-3.162-1.759-5.801-4.528-7.918-8.299
			c-2.119-3.768-3.178-8.352-3.178-13.667c0-7.314,2.708-13.687,8.202-19.116c5.423-5.492,12.839-8.203,22.242-8.203
			c4.977,0,9.536,0.625,13.668,1.953c4.131,1.261,6.945,2.604,8.526,3.898l3.126,2.404c2.584,2.373,3.839,4.421,3.839,6.071
			c0,1.651-0.989,3.984-2.938,6.859c-2.882,4.167-5.747,6.251-8.77,6.251c-1.719,0-3.872-0.792-6.459-2.516
			c-0.285-0.14-0.765-0.573-1.457-1.217c-0.679-0.656-1.305-1.193-1.951-1.617c-1.732-1.083-3.938-1.624-6.628-1.624
			c-2.691,0-4.99,0.636-6.756,1.96c-1.754,1.265-2.674,3.017-2.674,5.347c0,2.273,1.06,4.153,3.178,5.517
			c2.118,1.434,4.756,2.404,7.92,2.907c3.158,0.504,6.647,1.246,10.383,2.286c3.733,1.034,7.137,2.353,10.298,3.787
			c3.159,1.51,5.8,4.105,7.917,7.804c2.117,3.775,3.179,8.274,3.179,13.678c0,5.381-1.077,10.205-3.231,14.336
			c-2.152,3.987-4.948,7.313-8.474,9.535c-6.754,4.37-13.892,6.56-21.583,6.56c-3.872,0-7.572-0.55-11.097-1.371
			c-3.512-0.971-6.319-2.133-8.472-3.64c-4.377-2.592-7.467-5.243-9.258-7.7L458.387,93.246z"/>
		<path fill="#C6C4E7" stroke="#C6C4E7" stroke-width="2" stroke-miterlimit="10" d="M529.779,25.588
			c0-1.932,0.051-3.39,0.154-4.287c0.104-0.973,0.521-2.068,1.162-3.359c1.224-2.222,4.453-3.334,9.771-3.334
			c5.822,0,9.24,1.548,10.33,4.625c0.407,1.368,0.643,3.52,0.643,6.47v69.304c0,2.015-0.113,3.553-0.217,4.343
			c-0.104,0.939-0.509,2.014-1.163,3.38c-1.159,2.22-4.39,3.329-9.702,3.329c-5.892,0-9.26-1.638-10.268-4.799
			c-0.504-1.31-0.711-3.426-0.711-6.356V25.588z"/>
		<path fill="#C6C4E7" stroke="#C6C4E7" stroke-width="2" stroke-miterlimit="10" d="M567.773,14.492h69.324
			c2.744,0,4.705,0.272,5.938,0.881c1.216,0.684,2.082,1.671,2.432,2.968c0.496,1.36,0.69,3.094,0.69,5.245
			c0,2.154-0.194,3.858-0.69,5.181c-0.35,1.262-1.111,2.18-2.121,2.676c-1.422,0.723-3.541,1.122-6.356,1.122h-23.717v62.799
			c0,1.795-0.203,3.306-0.328,4.239c-0.104,0.79-0.42,1.849-1.112,3.176c-0.523,1.184-1.616,2.067-3.281,2.482
			c-1.5,0.444-3.58,0.798-6.252,0.798c-2.501,0-4.568-0.354-6.199-0.798c-1.463-0.415-2.537-1.299-3.232-2.482
			c-0.521-1.327-1.001-2.403-1.107-3.227c-0.108-0.971-0.158-2.497-0.158-4.441V32.564h-23.945c-2.625,0-4.604-0.348-5.819-0.956
			c-1.273-0.607-2.082-1.597-2.533-2.894c-0.407-1.358-0.591-3.089-0.591-5.245c0-2.152,0.184-3.929,0.591-5.181
			c0.451-1.335,1.119-2.174,2.118-2.672C562.949,14.815,565.069,14.492,567.773,14.492z"/>
		<path fill="#C6C4E7" stroke="#C6C4E7" stroke-width="2" stroke-miterlimit="10" d="M722.992,90.563
			c1.22,2.997,1.766,5.147,1.766,6.458c0,3.164-2.524,5.882-7.678,8.031c-2.599,1.146-4.733,1.659-6.41,1.659
			c-1.555,0-2.987-0.332-4.028-1.168c-1.043-0.681-1.708-1.531-2.275-2.4c-0.867-1.488-4.098-9.146-9.711-22.505l-3.903,0.212
			h-15.729v14.053c0,1.923-0.055,3.319-0.157,4.288c-0.104,0.975-0.459,2.068-1.164,3.285c-1.147,2.369-4.398,3.479-9.692,3.479
			c-5.902,0-9.271-1.604-10.279-4.695c-0.443-1.38-0.797-3.529-0.797-6.463V25.588c0-1.932,0.054-3.39,0.16-4.287
			c0.249-0.973,0.603-2.068,1.309-3.359c1.167-2.222,4.398-3.334,9.714-3.334h26.843c7.33,0,14.485,2.658,21.441,7.973
			c3.3,2.585,5.961,6.099,8.117,10.486c2.252,4.379,3.377,9.333,3.377,14.715c0,9.411-3.123,17.115-9.376,23.125
			C716.244,75.429,719.126,81.926,722.992,90.563z M675.023,58.771h15.936c2.513,0,4.899-0.935,7.262-2.726
			c2.508-1.874,3.691-4.602,3.691-8.264c0-3.664-1.184-6.409-3.691-8.307c-2.362-1.835-4.822-2.789-7.469-2.789h-15.729V58.771z"/>
		<path fill="#C6C4E7" stroke="#C6C4E7" stroke-width="2" stroke-miterlimit="10" d="M801.865,16.329
			c3.927,2.87,5.974,5.605,5.974,8.263c0,1.581-0.967,3.772-2.744,6.565l-27.021,40.336v23.871c0,1.795-0.05,3.323-0.157,4.294
			c-0.103,0.973-0.588,2.063-1.164,3.279c-0.728,1.217-1.842,2.116-3.334,2.559c-1.661,0.563-3.779,0.776-6.484,0.776
			c-2.615,0-4.732-0.213-6.369-0.776c-1.523-0.442-2.631-1.357-3.338-2.611c-0.583-1.397-1.065-2.509-1.187-3.332
			c-0.107-0.971-0.156-2.53-0.156-4.545V71.492l-26.997-40.336c-1.796-2.793-2.766-4.984-2.766-6.565
			c0-2.657,1.726-5.224,5.451-7.708c3.6-2.408,6.284-3.681,7.801-3.681c1.644,0,2.862,0.364,3.795,1.007
			c1.38,0.937,2.955,2.621,4.456,5.138l19.31,30.95l19.405-30.95c1.499-2.517,2.988-4.149,4.136-4.908
			c1.146-0.821,2.449-1.237,4.076-1.237C796.012,13.203,798.395,14.244,801.865,16.329z"/>
		<path fill="#C6C4E7" stroke="#C6C4E7" stroke-width="2" stroke-miterlimit="10" d="M814.938,86.532
			c1.307,1.45,2.03,4.135,2.03,8.32v0.553c0,1.777-0.045,3.295-0.146,4.228c-0.104,0.786-0.615,2.016-1.217,3.25
			c-1.302,2.258-4.169,3.39-9.037,3.39c-4.71,0-7.878-0.787-9.504-2.228c-1.468-1.576-2.276-4.324-2.276-8.525v-0.563
			c0-1.716,0.05-3.195,0.145-4.161c0.106-0.971,0.592-2.027,1.125-3.197c1.169-2.345,4.186-3.511,9.033-3.511
			C809.797,84.087,813.082,84.956,814.938,86.532z"/>
		<path fill="#C6C4E7" stroke="#C6C4E7" stroke-width="2" stroke-miterlimit="10" d="M879.068,83.343l2.121-1.49
			c2.604-1.658,4.534-2.315,5.643-2.315c2.547,0,5.115,2.19,8.005,6.581c1.672,2.683,2.55,5.022,2.55,6.61
			c0,1.729-0.467,3.058-1.524,4.154c-1.075,1.1-2.279,2.099-3.79,2.999c-1.391,0.901-2.709,1.767-4.114,2.422
			c-1.292,0.844-3.87,1.869-7.934,3.1c-4.06,1.246-7.995,1.927-11.679,1.927c-3.826,0-7.564-0.41-11.419-1.411
			c-3.896-0.991-7.887-2.732-11.829-5.018c-4.101-2.293-7.84-5.2-11.068-8.546c-3.233-3.32-5.832-7.764-7.926-13.022
			c-2.096-5.282-3.136-10.922-3.136-17.122c0-6.114,1.013-11.74,2.94-16.801c2.065-4.981,4.779-9.14,7.977-12.417
			c3.194-3.258,6.787-6.072,10.919-8.272c7.844-4.264,15.567-6.395,23.493-6.395c3.646,0,7.469,0.567,11.216,1.697
			c3.9,1.142,6.843,2.363,8.843,3.529l2.746,1.656c1.51,0.888,2.605,1.58,3.379,2.127c1.971,1.648,3.013,3.567,3.013,5.657
			c0,2.102-0.721,4.291-2.436,6.551c-3.11,4.269-5.917,6.477-8.341,6.477c-1.362,0-3.39-0.898-6.088-2.613
			c-3.303-2.764-7.684-4.065-13.2-4.065c-5.156,0-10.254,1.748-15.277,5.329c-2.323,1.726-4.326,4.205-5.839,7.365
			c-1.65,3.162-2.334,6.755-2.334,10.722c0,3.945,0.684,7.619,2.334,10.779c1.513,3.157,3.548,5.598,6.084,7.453
			c4.745,3.449,9.812,5.223,15.032,5.223c2.41,0,4.692-0.266,6.861-0.96C876.449,84.574,878.102,84.023,879.068,83.343z"/>
		<path fill="#C6C4E7" stroke="#C6C4E7" stroke-width="2" stroke-miterlimit="10" d="M946.016,18.125
			c11.842,0,21.913,4.229,30.514,12.695c8.747,8.46,13.04,18.956,13.04,31.442c0,12.554-4.132,23.229-12.387,32.122
			c-8.251,8.779-18.284,13.165-30.406,13.165c-11.963,0-22.231-4.349-30.663-13c-8.424-8.66-12.635-19.047-12.635-31.106
			c0-6.601,1.162-12.771,3.517-18.438c2.475-5.744,5.641-10.547,9.48-14.473c3.986-3.841,8.489-6.904,13.648-9.114
			C935.299,19.228,940.593,18.125,946.016,18.125z M924.504,62.809c0,7.001,2.238,12.807,6.754,17.172
			c4.636,4.38,9.748,6.552,15.321,6.552c5.563,0,10.648-2.132,15.135-6.406c4.6-4.261,6.832-9.935,6.832-17.149
			c0-7.229-2.249-13.006-6.889-17.341c-4.506-4.324-9.624-6.576-15.171-6.576c-5.652,0-10.667,2.268-15.283,6.628
			C926.727,50.052,924.504,55.782,924.504,62.809z"/>
		<path fill="#C6C4E7" stroke="#C6C4E7" stroke-width="2" stroke-miterlimit="10" d="M1089.733,22.486
			c0.532,1.175,1.018,2.234,1.121,3.206c0.095,0.961,0.146,2.297,0.146,4.157v65.868c0,5.433-1.483,8.618-4.452,9.584
			c-1.6,0.569-3.534,0.771-5.801,0.771c-2.261,0-4.118-0.173-5.442-0.669c-1.294-0.336-2.331-0.872-3.088-1.358
			c-0.607-0.631-1.242-1.303-1.564-2.329c-0.506-1.465-0.666-3.527-0.666-6.196V55.711c-2.004,2.48-4.919,6.349-8.622,11.681
			c-3.858,5.331-6.243,8.636-7.268,10.107c-1.038,1.301-1.777,2.249-2.142,2.676c-0.337,0.601-1.309,1.223-2.941,2.148
			c-1.471,0.907-3.196,1.466-5.015,1.466c-1.681,0-3.376-0.521-4.771-1.364c-1.559-0.719-2.608-1.563-3.142-2.395l-0.97-1.265
			c-1.627-2.001-4.786-6.208-9.4-12.646c-4.592-6.506-7.223-9.924-7.556-10.409v40.006c0,1.869-0.052,3.183-0.156,4.114
			c-0.111,0.935-0.582,1.955-1.131,3.052c-1.307,2.119-4.258,3.189-9.288,3.189c-4.89,0-7.907-1.07-9.075-3.189
			c-0.535-1.097-1.021-2.139-1.117-3.104c-0.104-0.955-0.153-2.347-0.153-4.26V29.567c0-1.781,0.05-3.176,0.153-4.035
			c0.097-0.934,0.582-1.98,1.117-3.146c1.168-2.062,4.259-3.097,9.296-3.097c2.131,0,3.998,0.214,5.477,0.734
			c1.617,0.516,2.642,1.061,3.046,1.609l0.772,0.754l26.837,35.354c13.497-17.815,22.553-29.534,27.005-35.253
			c1.312-2.129,4.508-3.197,9.554-3.197C1085.561,19.289,1088.636,20.357,1089.733,22.486z"/>
	</g>
	<g>
		<path fill="none" stroke="#F65683" stroke-width="4" d="M81.986,90.563c1.22,2.997,1.835,5.147,1.835,6.458
			c0,3.164-2.578,5.882-7.688,8.031c-2.658,1.146-4.791,1.659-6.45,1.659c-1.646,0-2.944-0.332-3.985-1.168
			c-1.043-0.681-1.822-1.531-2.283-2.4c-0.856-1.488-4.091-9.146-9.757-22.505l-3.85,0.212H34.087v14.053
			c0,1.923-0.052,3.319-0.175,4.288c-0.17,0.975-0.519,2.068-1.229,3.285c-1.148,2.369-4.379,3.479-9.693,3.479
			c-5.818,0-9.268-1.604-10.276-4.695C12.229,99.88,12,97.73,12,94.797V25.588c0-1.932,0.053-3.39,0.157-4.287
			c0.19-0.973,0.521-2.068,1.249-3.359c1.146-2.222,4.375-3.334,9.691-3.334h26.932c7.328,0,14.47,2.658,21.365,7.973
			c3.299,2.585,6.037,6.099,8.19,10.486c2.152,4.379,3.25,9.333,3.25,14.715c0,9.411-3.077,17.115-9.322,23.125
			C75.311,75.429,78.178,81.926,81.986,90.563z M34.087,58.771h15.941c2.437,0,4.808-0.935,7.251-2.726
			c2.414-1.874,3.626-4.602,3.626-8.264c0-3.664-1.212-6.409-3.626-8.307c-2.443-1.835-4.885-2.789-7.472-2.789H34.087V58.771z"/>
		<path fill="none" stroke="#F65683" stroke-width="4" d="M112.757,83.973h38.426c1.933,0,3.388,0.055,4.292,0.16
			c0.971,0.123,2.063,0.456,3.355,1.182c2.223,1.15,3.347,4.383,3.347,9.692c0,5.883-1.547,9.27-4.638,10.254
			c-1.365,0.444-3.564,0.798-6.458,0.798h-49.42c-5.818,0-9.188-1.638-10.194-4.799c-0.502-1.31-0.787-3.426-0.787-6.356V25.588
			c0-4.236,0.822-7.159,2.403-8.705c1.579-1.545,4.598-2.275,8.978-2.275h49.124c1.933,0,3.388,0.052,4.292,0.156
			c0.971,0.18,2.063,0.521,3.355,1.241c2.223,1.147,3.347,4.387,3.347,9.699c0,5.819-1.547,9.261-4.638,10.193
			c-1.365,0.505-3.564,0.791-6.458,0.791h-38.323v12.604h24.709c1.939,0,3.351,0.054,4.289,0.168
			c0.971,0.104,2.066,0.512,3.356,1.163c2.232,1.222,3.346,4.454,3.346,9.749c0,5.849-1.581,9.217-4.742,10.223
			c-1.441,0.567-3.592,0.774-6.471,0.774h-24.488V83.973z"/>
		<path fill="none" stroke="#F65683" stroke-width="4" d="M244.97,29.771c2.436,4.911,3.626,10.36,3.626,16.437
			c0,6.026-1.19,11.534-3.626,16.411c-2.378,4.847-5.5,8.764-9.36,11.692c-7.688,5.877-15.67,8.843-23.959,8.843h-17.438v15.788
			c0,2.12-0.064,3.815-0.254,4.883c-0.116,1.073-0.572,2.29-1.288,3.631c-1.332,2.444-4.901,3.803-10.906,3.803
			c-6.487,0-10.286-1.754-11.402-5.144c-0.611-1.677-0.851-4.049-0.851-7.278V21.388c0-2.13,0.052-3.736,0.167-4.807
			c0.191-1.059,0.583-2.341,1.364-3.693c1.28-2.519,4.905-3.745,10.89-3.745h29.833c8.218,0,16.156,2.931,23.843,8.853
			C239.47,20.916,242.591,24.79,244.97,29.771z M220.021,55.389c2.695-1.984,4.032-5.072,4.032-9.181
			c0-4.111-1.337-7.202-4.032-9.298c-2.687-2.095-5.524-3.148-8.371-3.148h-17.438v24.713h17.554
			C214.546,58.475,217.334,57.439,220.021,55.389z"/>
		<path fill="none" stroke="#F65683" stroke-width="4" d="M324.494,12.888c0.95-1.496,2.267-2.519,4.057-3.073
			c1.753-0.554,3.95-0.874,6.592-0.874c2.655,0,4.766,0.273,6.352,0.756c1.583,0.388,2.836,0.94,3.622,1.648
			c0.884,0.647,1.47,1.625,1.861,2.895c0.554,1.579,0.799,4.028,0.799,7.275v42.159c0,12.222-3.802,23.461-11.389,33.416
			c-3.717,4.81-8.564,8.543-14.431,11.523c-5.852,2.955-12.309,4.37-19.467,4.37c-7.076,0-13.511-1.433-19.322-4.424
			c-5.815-3.013-10.531-6.798-14.168-11.702c-7.591-9.794-11.343-21.04-11.343-33.532V21.388c0-2.213,0.054-3.929,0.245-5
			c0.118-1.059,0.582-2.265,1.289-3.691c0.802-1.351,2.024-2.328,3.767-2.882c1.812-0.554,4.143-0.874,7.147-0.874
			c3.002,0,5.332,0.32,7.075,0.874c1.814,0.554,3.003,1.531,3.639,2.882c1.105,2.132,1.661,5.101,1.661,8.819v41.811
			c0,5.762,1.426,11.152,4.189,16.278c1.415,2.543,3.523,4.621,6.278,6.294c2.852,1.503,6.133,2.34,9.927,2.34
			c6.795,0,11.892-2.593,15.222-7.531c3.309-5.043,5.022-10.929,5.022-17.498V20.527C323.116,16.89,323.544,14.322,324.494,12.888z"
			/>
		<path fill="none" stroke="#F65683" stroke-width="4" d="M425.021,13.39c0.919-1.699,2.206-2.787,3.99-3.341
			c1.772-0.554,3.968-0.788,6.605-0.788c2.662,0,4.78,0.188,6.404,0.671c1.625,0.474,2.886,1.025,3.64,1.659
			c0.824,0.704,1.396,1.625,1.723,2.969c0.594,1.498,0.861,3.827,0.861,7.073V99.07c0,2.214-0.053,3.9-0.179,4.938
			c-0.182,1.037-0.59,2.211-1.353,3.551c-1.271,2.593-4.92,3.826-10.916,3.826c-3.563,0-6.084-0.232-7.5-0.872
			c-1.375-0.613-2.577-1.372-3.444-2.721C403.9,79.99,390.142,61.742,383.499,53.178V99.07c0,2.214-0.051,3.9-0.167,4.938
			c-0.139,1.037-0.572,2.211-1.364,3.551c-1.271,2.593-4.909,3.826-10.84,3.826c-5.771,0-9.323-1.233-10.66-3.826
			c-0.716-1.34-1.168-2.577-1.287-3.679c-0.117-1.105-0.186-2.818-0.186-4.938V21.08c0-3.479,0.372-6.066,1.294-7.689
			c0.895-1.699,2.193-2.787,4.007-3.341c1.742-0.554,3.993-0.788,6.832-0.788c2.778,0,4.97,0.217,6.586,0.723
			c1.623,0.521,2.746,1.092,3.455,1.797c0.328,0.247,1.398,1.436,3.216,3.566c19.602,26.716,32.717,44.379,39.288,52.929V21.08
			C423.672,17.6,424.123,15.013,425.021,13.39z"/>
		<path fill="none" stroke="#F65683" stroke-width="4" d="M458.387,93.246c-2.154-2.72-3.231-5.087-3.231-7.207
			c0-2.121,1.817-4.958,5.349-8.417c2.083-2.02,4.28-3.019,6.638-3.019c2.305,0,5.533,2.079,9.702,6.247
			c1.213,1.375,2.871,2.68,5.024,4.079c2.153,1.25,4.169,1.959,5.957,1.959c7.762,0,11.6-3.16,11.6-9.476
			c0-1.945-1.061-3.606-3.178-4.862c-2.119-1.27-4.759-2.225-7.918-2.86c-3.161-0.511-6.529-1.465-10.193-2.715
			c-3.666-1.343-7.109-2.854-10.268-4.592c-3.162-1.759-5.801-4.528-7.918-8.299c-2.119-3.768-3.178-8.352-3.178-13.667
			c0-7.314,2.708-13.687,8.202-19.116c5.423-5.492,12.839-8.203,22.242-8.203c4.977,0,9.536,0.625,13.668,1.953
			c4.131,1.261,6.945,2.604,8.526,3.898l3.126,2.404c2.584,2.373,3.839,4.421,3.839,6.071c0,1.651-0.989,3.984-2.938,6.859
			c-2.882,4.167-5.747,6.251-8.77,6.251c-1.719,0-3.872-0.792-6.459-2.516c-0.285-0.14-0.765-0.573-1.457-1.217
			c-0.679-0.656-1.305-1.193-1.951-1.617c-1.732-1.083-3.938-1.624-6.628-1.624c-2.691,0-4.99,0.636-6.756,1.96
			c-1.754,1.265-2.674,3.017-2.674,5.347c0,2.273,1.06,4.153,3.178,5.517c2.118,1.434,4.756,2.404,7.92,2.907
			c3.158,0.504,6.647,1.246,10.383,2.286c3.733,1.034,7.137,2.353,10.298,3.787c3.159,1.51,5.8,4.105,7.917,7.804
			c2.117,3.775,3.179,8.274,3.179,13.678c0,5.381-1.077,10.205-3.231,14.336c-2.152,3.987-4.948,7.313-8.474,9.535
			c-6.754,4.37-13.892,6.56-21.583,6.56c-3.872,0-7.572-0.55-11.097-1.371c-3.512-0.971-6.319-2.133-8.472-3.64
			c-4.377-2.592-7.467-5.243-9.258-7.7L458.387,93.246z"/>
		<path fill="none" stroke="#F65683" stroke-width="4" d="M529.779,25.588c0-1.932,0.051-3.39,0.154-4.287
			c0.104-0.973,0.521-2.068,1.162-3.359c1.224-2.222,4.453-3.334,9.771-3.334c5.822,0,9.24,1.548,10.33,4.625
			c0.407,1.368,0.643,3.52,0.643,6.47v69.304c0,2.015-0.113,3.553-0.217,4.343c-0.104,0.939-0.509,2.014-1.163,3.38
			c-1.159,2.22-4.39,3.329-9.702,3.329c-5.892,0-9.26-1.638-10.268-4.799c-0.504-1.31-0.711-3.426-0.711-6.356V25.588z"/>
		<path fill="none" stroke="#F65683" stroke-width="4" d="M567.773,14.492h69.324c2.744,0,4.705,0.272,5.938,0.881
			c1.216,0.684,2.082,1.671,2.432,2.968c0.496,1.36,0.69,3.094,0.69,5.245c0,2.154-0.194,3.858-0.69,5.181
			c-0.35,1.262-1.111,2.18-2.121,2.676c-1.422,0.723-3.541,1.122-6.356,1.122h-23.717v62.799c0,1.795-0.203,3.306-0.328,4.239
			c-0.104,0.79-0.42,1.849-1.112,3.176c-0.523,1.184-1.616,2.067-3.281,2.482c-1.5,0.444-3.58,0.798-6.252,0.798
			c-2.501,0-4.568-0.354-6.199-0.798c-1.463-0.415-2.537-1.299-3.232-2.482c-0.521-1.327-1.001-2.403-1.107-3.227
			c-0.108-0.971-0.158-2.497-0.158-4.441V32.564h-23.945c-2.625,0-4.604-0.348-5.819-0.956c-1.273-0.607-2.082-1.597-2.533-2.894
			c-0.407-1.358-0.591-3.089-0.591-5.245c0-2.152,0.184-3.929,0.591-5.181c0.451-1.335,1.119-2.174,2.118-2.672
			C562.949,14.815,565.069,14.492,567.773,14.492z"/>
		<path fill="none" stroke="#F65683" stroke-width="4" d="M722.992,90.563c1.22,2.997,1.766,5.147,1.766,6.458
			c0,3.164-2.524,5.882-7.678,8.031c-2.599,1.146-4.733,1.659-6.41,1.659c-1.555,0-2.987-0.332-4.028-1.168
			c-1.043-0.681-1.708-1.531-2.275-2.4c-0.867-1.488-4.098-9.146-9.711-22.505l-3.903,0.212h-15.729v14.053
			c0,1.923-0.055,3.319-0.157,4.288c-0.104,0.975-0.459,2.068-1.164,3.285c-1.147,2.369-4.398,3.479-9.692,3.479
			c-5.902,0-9.271-1.604-10.279-4.695c-0.443-1.38-0.797-3.529-0.797-6.463V25.588c0-1.932,0.054-3.39,0.16-4.287
			c0.249-0.973,0.603-2.068,1.309-3.359c1.167-2.222,4.398-3.334,9.714-3.334h26.843c7.33,0,14.485,2.658,21.441,7.973
			c3.3,2.585,5.961,6.099,8.117,10.486c2.252,4.379,3.377,9.333,3.377,14.715c0,9.411-3.123,17.115-9.376,23.125
			C716.244,75.429,719.126,81.926,722.992,90.563z M675.023,58.771h15.936c2.513,0,4.899-0.935,7.262-2.726
			c2.508-1.874,3.691-4.602,3.691-8.264c0-3.664-1.184-6.409-3.691-8.307c-2.362-1.835-4.822-2.789-7.469-2.789h-15.729V58.771z"/>
		<path fill="none" stroke="#F65683" stroke-width="4" d="M801.865,16.329c3.927,2.87,5.974,5.605,5.974,8.263
			c0,1.581-0.967,3.772-2.744,6.565l-27.021,40.336v23.871c0,1.795-0.05,3.323-0.157,4.294c-0.103,0.973-0.588,2.063-1.164,3.279
			c-0.728,1.217-1.842,2.116-3.334,2.559c-1.661,0.563-3.779,0.776-6.484,0.776c-2.615,0-4.732-0.213-6.369-0.776
			c-1.523-0.442-2.631-1.357-3.338-2.611c-0.583-1.397-1.065-2.509-1.187-3.332c-0.107-0.971-0.156-2.53-0.156-4.545V71.492
			l-26.997-40.336c-1.796-2.793-2.766-4.984-2.766-6.565c0-2.657,1.726-5.224,5.451-7.708c3.6-2.408,6.284-3.681,7.801-3.681
			c1.644,0,2.862,0.364,3.795,1.007c1.38,0.937,2.955,2.621,4.456,5.138l19.31,30.95l19.405-30.95
			c1.499-2.517,2.988-4.149,4.136-4.908c1.146-0.821,2.449-1.237,4.076-1.237C796.012,13.203,798.395,14.244,801.865,16.329z"/>
		<path fill="none" stroke="#F65683" stroke-width="4" d="M814.938,86.532c1.307,1.45,2.03,4.135,2.03,8.32v0.553
			c0,1.777-0.045,3.295-0.146,4.228c-0.104,0.786-0.615,2.016-1.217,3.25c-1.302,2.258-4.169,3.39-9.037,3.39
			c-4.71,0-7.878-0.787-9.504-2.228c-1.468-1.576-2.276-4.324-2.276-8.525v-0.563c0-1.716,0.05-3.195,0.145-4.161
			c0.106-0.971,0.592-2.027,1.125-3.197c1.169-2.345,4.186-3.511,9.033-3.511C809.797,84.087,813.082,84.956,814.938,86.532z"/>
		<path fill="none" stroke="#F65683" stroke-width="4" d="M879.068,83.343l2.121-1.49c2.604-1.658,4.534-2.315,5.643-2.315
			c2.547,0,5.115,2.19,8.005,6.581c1.672,2.683,2.55,5.022,2.55,6.61c0,1.729-0.467,3.058-1.524,4.154
			c-1.075,1.1-2.279,2.099-3.79,2.999c-1.391,0.901-2.709,1.767-4.114,2.422c-1.292,0.844-3.87,1.869-7.934,3.1
			c-4.06,1.246-7.995,1.927-11.679,1.927c-3.826,0-7.564-0.41-11.419-1.411c-3.896-0.991-7.887-2.732-11.829-5.018
			c-4.101-2.293-7.84-5.2-11.068-8.546c-3.233-3.32-5.832-7.764-7.926-13.022c-2.096-5.282-3.136-10.922-3.136-17.122
			c0-6.114,1.013-11.74,2.94-16.801c2.065-4.981,4.779-9.14,7.977-12.417c3.194-3.258,6.787-6.072,10.919-8.272
			c7.844-4.264,15.567-6.395,23.493-6.395c3.646,0,7.469,0.567,11.216,1.697c3.9,1.142,6.843,2.363,8.843,3.529l2.746,1.656
			c1.51,0.888,2.605,1.58,3.379,2.127c1.971,1.648,3.013,3.567,3.013,5.657c0,2.102-0.721,4.291-2.436,6.551
			c-3.11,4.269-5.917,6.477-8.341,6.477c-1.362,0-3.39-0.898-6.088-2.613c-3.303-2.764-7.684-4.065-13.2-4.065
			c-5.156,0-10.254,1.748-15.277,5.329c-2.323,1.726-4.326,4.205-5.839,7.365c-1.65,3.162-2.334,6.755-2.334,10.722
			c0,3.945,0.684,7.619,2.334,10.779c1.513,3.157,3.548,5.598,6.084,7.453c4.745,3.449,9.812,5.223,15.032,5.223
			c2.41,0,4.692-0.266,6.861-0.96C876.449,84.574,878.102,84.023,879.068,83.343z"/>
		<path fill="none" stroke="#F65683" stroke-width="4" d="M946.016,18.125c11.842,0,21.913,4.229,30.514,12.695
			c8.747,8.46,13.04,18.956,13.04,31.442c0,12.554-4.132,23.229-12.387,32.122c-8.251,8.779-18.284,13.165-30.406,13.165
			c-11.963,0-22.231-4.349-30.663-13c-8.424-8.66-12.635-19.047-12.635-31.106c0-6.601,1.162-12.771,3.517-18.438
			c2.475-5.744,5.641-10.547,9.48-14.473c3.986-3.841,8.489-6.904,13.648-9.114C935.299,19.228,940.593,18.125,946.016,18.125z
			 M924.504,62.809c0,7.001,2.238,12.807,6.754,17.172c4.636,4.38,9.748,6.552,15.321,6.552c5.563,0,10.648-2.132,15.135-6.406
			c4.6-4.261,6.832-9.935,6.832-17.149c0-7.229-2.249-13.006-6.889-17.341c-4.506-4.324-9.624-6.576-15.171-6.576
			c-5.652,0-10.667,2.268-15.283,6.628C926.727,50.052,924.504,55.782,924.504,62.809z"/>
		<path fill="none" stroke="#F65683" stroke-width="4" d="M1089.733,22.486c0.532,1.175,1.018,2.234,1.121,3.206
			c0.095,0.961,0.146,2.297,0.146,4.157v65.868c0,5.433-1.483,8.618-4.452,9.584c-1.6,0.569-3.534,0.771-5.801,0.771
			c-2.261,0-4.118-0.173-5.442-0.669c-1.294-0.336-2.331-0.872-3.088-1.358c-0.607-0.631-1.242-1.303-1.564-2.329
			c-0.506-1.465-0.666-3.527-0.666-6.196V55.711c-2.004,2.48-4.919,6.349-8.622,11.681c-3.858,5.331-6.243,8.636-7.268,10.107
			c-1.038,1.301-1.777,2.249-2.142,2.676c-0.337,0.601-1.309,1.223-2.941,2.148c-1.471,0.907-3.196,1.466-5.015,1.466
			c-1.681,0-3.376-0.521-4.771-1.364c-1.559-0.719-2.608-1.563-3.142-2.395l-0.97-1.265c-1.627-2.001-4.786-6.208-9.4-12.646
			c-4.592-6.506-7.223-9.924-7.556-10.409v40.006c0,1.869-0.052,3.183-0.156,4.114c-0.111,0.935-0.582,1.955-1.131,3.052
			c-1.307,2.119-4.258,3.189-9.288,3.189c-4.89,0-7.907-1.07-9.075-3.189c-0.535-1.097-1.021-2.139-1.117-3.104
			c-0.104-0.955-0.153-2.347-0.153-4.26V29.567c0-1.781,0.05-3.176,0.153-4.035c0.097-0.934,0.582-1.98,1.117-3.146
			c1.168-2.062,4.259-3.097,9.296-3.097c2.131,0,3.998,0.214,5.477,0.734c1.617,0.516,2.642,1.061,3.046,1.609l0.772,0.754
			l26.837,35.354c13.497-17.815,22.553-29.534,27.005-35.253c1.312-2.129,4.508-3.197,9.554-3.197
			C1085.561,19.289,1088.636,20.357,1089.733,22.486z"/>
	</g>
</g>
</svg>
